<svg width="180" height="180" viewBox="0 0 180 180" fill="none" xmlns="http://www.w3.org/2000/svg">
<g id="basil:user-solid">
<path id="Vector" d="M90 28.125C82.5408 28.125 75.3871 31.0882 70.1126 36.3626C64.8382 41.6371 61.875 48.7908 61.875 56.25C61.875 63.7092 64.8382 70.8629 70.1126 76.1374C75.3871 81.4118 82.5408 84.375 90 84.375C97.4592 84.375 104.613 81.4118 109.887 76.1374C115.162 70.8629 118.125 63.7092 118.125 56.25C118.125 48.7908 115.162 41.6371 109.887 36.3626C104.613 31.0882 97.4592 28.125 90 28.125ZM60 99.375C52.5408 99.375 45.3871 102.338 40.1126 107.613C34.8382 112.887 31.875 120.041 31.875 127.5V136.41C31.875 142.065 35.97 146.88 41.55 147.787C73.635 153.03 106.365 153.03 138.45 147.787C141.149 147.344 143.602 145.956 145.374 143.873C147.146 141.789 148.12 139.145 148.125 136.41V127.5C148.125 120.041 145.162 112.887 139.887 107.613C134.613 102.338 127.459 99.375 120 99.375H117.45C116.05 99.38 114.69 99.595 113.37 100.02L106.875 102.143C95.9098 105.722 84.0902 105.722 73.125 102.143L66.63 100.02C65.3135 99.5977 63.94 99.3802 62.5575 99.375H60Z" fill="#757575"/>
</g>
</svg>
