<svg width="40" height="40" viewBox="0 0 40 40" fill="none" xmlns="http://www.w3.org/2000/svg">
<g id="basil:at-sign-solid">
<path id="Vector" fill-rule="evenodd" clip-rule="evenodd" d="M7.92482 20C7.92482 16.7953 9.19788 13.7219 11.4639 11.4558C13.73 9.18974 16.8034 7.91668 20.0081 7.91668C23.2128 7.91668 26.2863 9.18974 28.5524 11.4558C30.8184 13.7219 32.0915 16.7953 32.0915 20C32.0915 20.0556 32.0948 20.1111 32.1015 20.1667C32.0967 20.2193 32.0945 20.2722 32.0948 20.325C32.1065 20.75 32.0515 21.4084 31.9115 22.0367C31.7615 22.7217 31.5615 23.115 31.4465 23.2367C31.1973 23.4982 30.8991 23.708 30.5688 23.8542C30.2385 24.0004 29.8827 24.0801 29.5216 24.0888C29.1606 24.0974 28.8013 24.0349 28.4644 23.9047C28.1275 23.7745 27.8196 23.5792 27.5581 23.33C27.2131 23.0017 27.1148 22.5184 27.0881 21.3967L26.8948 13.4C26.8869 13.0685 26.7475 12.7537 26.5075 12.5249C26.2674 12.2961 25.9463 12.1721 25.6148 12.18C25.2833 12.188 24.9685 12.3273 24.7397 12.5673C24.5109 12.8074 24.3869 13.1285 24.3948 13.46L24.4231 14.615C23.3622 13.7449 22.0679 13.2074 20.7027 13.0702C19.3374 12.933 17.9621 13.2021 16.7492 13.8437C15.5363 14.4854 14.54 15.471 13.8853 16.6768C13.2305 17.8826 12.9465 19.255 13.0689 20.6216C13.1913 21.9883 13.7147 23.2883 14.5733 24.3586C15.4319 25.4289 16.5875 26.2218 17.8951 26.6377C19.2026 27.0536 20.6039 27.074 21.9231 26.6963C23.2422 26.3187 24.4204 25.5599 25.3098 24.515C25.4531 24.7339 25.6281 24.9422 25.8348 25.14C26.8427 26.1004 28.1908 26.6211 29.5826 26.5877C30.9744 26.5543 32.2959 25.9694 33.2565 24.9617C33.8731 24.315 34.1848 23.3367 34.3531 22.5784C34.5234 21.8193 34.6045 21.0429 34.5948 20.265L34.5848 20.1284L34.5915 20C34.5914 16.7002 33.4721 13.4979 31.4167 10.9164C29.3612 8.33498 26.4909 6.52694 23.275 5.78774C20.059 5.04854 16.6874 5.42188 13.711 6.84677C10.7346 8.27166 8.32953 10.6639 6.88861 13.6325C5.44769 16.6011 5.05617 19.9707 5.77802 23.1906C6.49986 26.4105 8.2924 29.2905 10.8627 31.3598C13.4331 33.4292 16.6293 34.5657 19.9291 34.5836C23.2289 34.6015 26.4372 33.4997 29.0298 31.4584C29.2818 31.2505 29.4424 30.9523 29.4773 30.6275C29.5122 30.3027 29.4185 29.9771 29.2164 29.7205C29.0142 29.4639 28.7197 29.2966 28.3957 29.2545C28.0718 29.2123 27.7442 29.2987 27.4831 29.495C25.701 30.8982 23.5599 31.7714 21.3048 32.0148C19.0496 32.2582 16.7715 31.862 14.731 30.8714C12.6905 29.8808 10.9701 28.3358 9.76643 26.4133C8.56279 24.4908 7.92458 22.2683 7.92482 20ZM20.0081 15.535C18.824 15.535 17.6883 16.0054 16.8509 16.8428C16.0136 17.6801 15.5431 18.8158 15.5431 20C15.5431 21.1842 16.0136 22.3199 16.8509 23.1573C17.6883 23.9946 18.824 24.465 20.0081 24.465C21.1923 24.465 22.328 23.9946 23.1654 23.1573C24.0027 22.3199 24.4731 21.1842 24.4731 20C24.4731 18.8158 24.0027 17.6801 23.1654 16.8428C22.328 16.0054 21.1923 15.535 20.0081 15.535Z" fill="#757575"/>
</g>
</svg>
