<svg width="51" height="56" viewBox="0 0 51 56" fill="none" xmlns="http://www.w3.org/2000/svg">
<g id="Group">
<path id="Vector" fill-rule="evenodd" clip-rule="evenodd" d="M22.8055 1.32983C23.4998 0.944307 24.2808 0.742004 25.075 0.742004C25.8691 0.742004 26.6502 0.944307 27.3445 1.32983L47.7445 12.6632C49.2292 13.4877 50.15 15.0517 50.15 16.7517V39.2483C50.15 40.9483 49.2292 42.5123 47.7445 43.3368L27.3445 54.6702C26.6502 55.0557 25.8691 55.258 25.075 55.258C24.2808 55.258 23.4998 55.0557 22.8055 54.6702L2.4055 43.3368C1.67627 42.9319 1.06865 42.3392 0.645672 41.6203C0.222695 40.9014 -0.000236303 40.0824 1.8796e-07 39.2483V16.7517C1.8796e-07 15.0517 0.920833 13.4877 2.4055 12.6632L22.8055 1.32983ZM25.2818 5.04716C25.2186 5.01193 25.1474 4.99344 25.075 4.99344C25.0026 4.99344 24.9314 5.01193 24.8682 5.04716L4.46817 16.3805C4.40246 16.4171 4.34765 16.4705 4.30932 16.5352C4.27099 16.5999 4.25052 16.6736 4.25 16.7488V39.2512C4.25 39.4042 4.335 39.5458 4.46817 39.6195L24.8682 50.9528C24.9314 50.9881 25.0026 51.0066 25.075 51.0066C25.1474 51.0066 25.2186 50.9881 25.2818 50.9528L45.6818 39.6195C45.7475 39.5829 45.8023 39.5295 45.8407 39.4648C45.879 39.4001 45.8995 39.3264 45.9 39.2512V16.7517C45.9 16.676 45.8797 16.6017 45.8414 16.5364C45.803 16.4712 45.748 16.4173 45.6818 16.3805L25.2818 5.04716Z" fill="#07CC00"/>
<path id="Vector_2" fill-rule="evenodd" clip-rule="evenodd" d="M11.6167 28C11.6167 24.4306 13.0346 21.0075 15.5586 18.4835C18.0825 15.9596 21.5057 14.5417 25.075 14.5417C28.6444 14.5417 32.0676 15.9596 34.5915 18.4835C37.1154 21.0075 38.5334 24.4306 38.5334 28C38.5334 31.5694 37.1154 34.9926 34.5915 37.5165C32.0676 40.0404 28.6444 41.4584 25.075 41.4584C21.5057 41.4584 18.0825 40.0404 15.5586 37.5165C13.0346 34.9926 11.6167 31.5694 11.6167 28ZM25.075 18.7917C22.6328 18.7917 20.2907 19.7618 18.5638 21.4887C16.8369 23.2156 15.8667 25.5578 15.8667 28C15.8667 30.4422 16.8369 32.7844 18.5638 34.5113C20.2907 36.2382 22.6328 37.2084 25.075 37.2084C27.5172 37.2084 29.8594 36.2382 31.5863 34.5113C33.3132 32.7844 34.2834 30.4422 34.2834 28C34.2834 25.5578 33.3132 23.2156 31.5863 21.4887C29.8594 19.7618 27.5172 18.7917 25.075 18.7917Z" fill="#07CC00"/>
</g>
</svg>
