<svg width="40" height="40" viewBox="0 0 40 40" fill="none" xmlns="http://www.w3.org/2000/svg">
<g id="basil:phone-solid">
<path id="Vector" d="M8.33352 16.4334C11.5338 23.401 17.2192 28.9235 24.2769 31.92L25.4102 32.425C26.6652 32.9839 28.0773 33.0819 29.3975 32.7017C30.7177 32.3215 31.8613 31.4875 32.6269 30.3467L34.1085 28.14C34.3404 27.794 34.4342 27.3736 34.3716 26.9618C34.309 26.55 34.0944 26.1765 33.7702 25.915L28.7502 21.865C28.5754 21.7241 28.3739 21.6199 28.1578 21.5588C27.9417 21.4977 27.7155 21.4809 27.4927 21.5093C27.2699 21.5378 27.0552 21.611 26.8615 21.7246C26.6677 21.8381 26.4989 21.9896 26.3652 22.17L24.8119 24.265C20.8245 22.2958 17.5971 19.0677 15.6285 15.08L17.7219 13.5267C17.9023 13.393 18.0538 13.2242 18.1673 13.0304C18.2809 12.8367 18.3541 12.622 18.3826 12.3992C18.411 12.1765 18.3942 11.9502 18.3331 11.7341C18.272 11.5181 18.1678 11.3165 18.0269 11.1417L13.9769 6.12172C13.7154 5.79748 13.3419 5.58291 12.9301 5.52029C12.5183 5.45767 12.0979 5.55153 11.7519 5.78339L9.53019 7.27339C8.38252 8.04302 7.54534 9.19507 7.16777 10.5243C6.79021 11.8536 6.89679 13.2737 7.46852 14.5317L8.33352 16.4334Z" fill="#757575"/>
</g>
</svg>
