<svg width="48" height="48" viewBox="0 0 48 48" fill="none" xmlns="http://www.w3.org/2000/svg">
<g id="basil:settings-adjust-solid">
<path id="Vector" d="M27.756 17.5H8C7.60218 17.5 7.22064 17.3419 6.93934 17.0606C6.65804 16.7793 6.5 16.3978 6.5 16C6.5 15.6021 6.65804 15.2206 6.93934 14.9393C7.22064 14.658 7.60218 14.5 8 14.5H27.756C28.0665 13.6226 28.6414 12.863 29.4014 12.3258C30.1614 11.7886 31.0693 11.5001 32 11.5001C32.9307 11.5001 33.8386 11.7886 34.5986 12.3258C35.3586 12.863 35.9335 13.6226 36.244 14.5H40C40.3978 14.5 40.7794 14.658 41.0607 14.9393C41.342 15.2206 41.5 15.6021 41.5 16C41.5 16.3978 41.342 16.7793 41.0607 17.0606C40.7794 17.3419 40.3978 17.5 40 17.5H36.244C35.9335 18.3773 35.3586 19.1369 34.5986 19.6741C33.8386 20.2114 32.9307 20.4998 32 20.4998C31.0693 20.4998 30.1614 20.2114 29.4014 19.6741C28.6414 19.1369 28.0665 18.3773 27.756 17.5ZM40 33.5C40.3978 33.5 40.7794 33.3419 41.0607 33.0606C41.342 32.7793 41.5 32.3978 41.5 32C41.5 31.6021 41.342 31.2206 41.0607 30.9393C40.7794 30.658 40.3978 30.5 40 30.5H20.244C19.9335 29.6226 19.3586 28.863 18.5986 28.3258C17.8386 27.7886 16.9307 27.5001 16 27.5001C15.0693 27.5001 14.1614 27.7886 13.4014 28.3258C12.6414 28.863 12.0665 29.6226 11.756 30.5H8C7.60218 30.5 7.22064 30.658 6.93934 30.9393C6.65804 31.2206 6.5 31.6021 6.5 32C6.5 32.3978 6.65804 32.7793 6.93934 33.0606C7.22064 33.3419 7.60218 33.5 8 33.5H11.756C12.0656 34.3783 12.6401 35.1389 13.4003 35.6769C14.1604 36.2149 15.0687 36.5038 16 36.5038C16.9313 36.5038 17.8396 36.2149 18.5997 35.6769C19.3599 35.1389 19.9344 34.3783 20.244 33.5H40Z" fill="#757575"/>
</g>
</svg>
