<svg width="56" height="56" viewBox="0 0 56 56" fill="none" xmlns="http://www.w3.org/2000/svg">
<path id="Vector" fill-rule="evenodd" clip-rule="evenodd" d="M25.5415 4.72133C21.7889 5.06447 18.1749 6.30977 15.0074 8.3511C11.84 10.3924 9.21296 13.1693 7.35032 16.445C5.48767 19.7207 4.44459 23.3982 4.30995 27.1641C4.17532 30.9299 4.95313 34.6725 6.5771 38.0729C8.20107 41.4733 10.623 44.4306 13.6366 46.6929C16.6502 48.9552 20.1661 50.4554 23.8846 51.0657C27.6032 51.6759 31.4141 51.3781 34.9927 50.1976C38.5713 49.0171 41.8114 46.989 44.437 44.286L26.332 29.6518C26.0854 29.4528 25.8865 29.2012 25.7497 28.9154C25.6129 28.6296 25.5418 28.3168 25.5415 28V4.72133ZM29.7915 4.72133V25.875H50.9452C50.4484 20.4322 48.0602 15.3356 44.1955 11.471C40.3309 7.60634 35.2343 5.21809 29.7915 4.72133ZM50.9452 30.125H33.676L47.1088 40.9795C49.278 37.7405 50.5973 34.0077 50.9452 30.125ZM0.0415039 28C0.0415039 12.7425 12.409 0.375 27.6665 0.375C42.924 0.375 55.2915 12.7425 55.2915 28C55.3039 34.3234 53.1354 40.4576 49.1517 45.3683C46.5645 48.5748 43.2915 51.1605 39.5733 52.9355C35.8552 54.7105 31.7866 55.6295 27.6665 55.625C20.3399 55.625 13.3134 52.7145 8.13268 47.5338C2.95199 42.3531 0.0415039 35.3266 0.0415039 28Z" fill="#0022CC"/>
</svg>
