<svg width="48" height="48" viewBox="0 0 48 48" fill="none" xmlns="http://www.w3.org/2000/svg">
<g id="basil:apps-solid">
<path id="Vector" d="M12.4119 5.26397C10.8088 5.08714 9.19103 5.08714 7.58789 5.26397C7.00181 5.32991 6.45512 5.59166 6.03628 6.00688C5.61743 6.4221 5.35093 6.96649 5.27989 7.55197C5.08899 9.17839 5.08899 10.8216 5.27989 12.448C5.41989 13.66 6.39189 14.602 7.58789 14.736C9.17789 14.916 10.8219 14.916 12.4119 14.736C12.998 14.67 13.5447 14.4083 13.9635 13.9931C14.3824 13.5778 14.6489 13.0335 14.7199 12.448C14.909 10.8214 14.909 9.17849 14.7199 7.55197C14.6489 6.96649 14.3824 6.4221 13.9635 6.00688C13.5447 5.59166 12.998 5.32991 12.4119 5.26397ZM26.4119 5.26397C24.8094 5.08729 23.1924 5.08729 21.5899 5.26397C21.0035 5.32949 20.4563 5.59105 20.0371 6.00631C19.6178 6.42156 19.351 6.96618 19.2799 7.55197C19.089 9.17839 19.089 10.8216 19.2799 12.448C19.4199 13.66 20.3919 14.602 21.5879 14.736C23.1779 14.916 24.8219 14.916 26.4119 14.736C26.998 14.67 27.5447 14.4083 27.9635 13.9931C28.3824 13.5778 28.6489 13.0335 28.7199 12.448C28.909 10.8214 28.909 9.17849 28.7199 7.55197C28.6489 6.96649 28.3824 6.4221 27.9635 6.00688C27.5447 5.59166 26.998 5.32991 26.4119 5.26397ZM40.4119 5.26397C38.8094 5.08729 37.1924 5.08729 35.5899 5.26397C35.0035 5.32949 34.4563 5.59105 34.0371 6.00631C33.6178 6.42156 33.351 6.96618 33.2799 7.55197C33.089 9.17839 33.089 10.8216 33.2799 12.448C33.4199 13.66 34.3919 14.602 35.5879 14.736C37.1779 14.916 38.8219 14.916 40.4119 14.736C40.998 14.67 41.5447 14.4083 41.9635 13.9931C42.3824 13.5778 42.6489 13.0335 42.7199 12.448C42.909 10.8214 42.909 9.17849 42.7199 7.55197C42.6489 6.96649 42.3824 6.4221 41.9635 6.00688C41.5447 5.59166 40.998 5.32991 40.4119 5.26397ZM12.4119 19.264C10.8088 19.0871 9.19103 19.0871 7.58789 19.264C7.00181 19.3299 6.45512 19.5917 6.03628 20.0069C5.61743 20.4221 5.35093 20.9665 5.27989 21.552C5.08899 23.1784 5.08899 24.8216 5.27989 26.448C5.41989 27.66 6.39189 28.602 7.58789 28.736C9.17789 28.916 10.8219 28.916 12.4119 28.736C12.998 28.67 13.5447 28.4083 13.9635 27.9931C14.3824 27.5778 14.6489 27.0335 14.7199 26.448C14.909 24.8214 14.909 23.1785 14.7199 21.552C14.6489 20.9665 14.3824 20.4221 13.9635 20.0069C13.5447 19.5917 12.998 19.3299 12.4119 19.264ZM26.4119 19.264C24.8094 19.0873 23.1924 19.0873 21.5899 19.264C21.0035 19.3295 20.4563 19.5911 20.0371 20.0063C19.6178 20.4216 19.351 20.9662 19.2799 21.552C19.089 23.1784 19.089 24.8216 19.2799 26.448C19.4199 27.66 20.3919 28.602 21.5879 28.736C23.1779 28.916 24.8219 28.916 26.4119 28.736C26.998 28.67 27.5447 28.4083 27.9635 27.9931C28.3824 27.5778 28.6489 27.0335 28.7199 26.448C28.9108 24.8216 28.9108 23.1784 28.7199 21.552C28.6489 20.9665 28.3824 20.4221 27.9635 20.0069C27.5447 19.5917 26.998 19.3299 26.4119 19.264ZM40.4119 19.264C38.8094 19.0873 37.1924 19.0873 35.5899 19.264C35.0035 19.3295 34.4563 19.5911 34.0371 20.0063C33.6178 20.4216 33.351 20.9662 33.2799 21.552C33.089 23.1784 33.089 24.8216 33.2799 26.448C33.4199 27.66 34.3919 28.602 35.5879 28.736C37.1779 28.916 38.8219 28.916 40.4119 28.736C40.998 28.67 41.5447 28.4083 41.9635 27.9931C42.3824 27.5778 42.6489 27.0335 42.7199 26.448C42.9108 24.8216 42.9108 23.1784 42.7199 21.552C42.6489 20.9665 42.3824 20.4221 41.9635 20.0069C41.5447 19.5917 40.998 19.3299 40.4119 19.264ZM12.4119 33.264C10.8088 33.0871 9.19103 33.0871 7.58789 33.264C7.00181 33.3299 6.45512 33.5917 6.03628 34.0069C5.61743 34.4221 5.35093 34.9665 5.27989 35.552C5.08899 37.1784 5.08899 38.8216 5.27989 40.448C5.41989 41.66 6.39189 42.602 7.58789 42.736C9.17789 42.916 10.8219 42.916 12.4119 42.736C12.998 42.67 13.5447 42.4083 13.9635 41.9931C14.3824 41.5778 14.6489 41.0335 14.7199 40.448C14.909 38.8214 14.909 37.1785 14.7199 35.552C14.6489 34.9665 14.3824 34.4221 13.9635 34.0069C13.5447 33.5917 12.998 33.3299 12.4119 33.264ZM26.4119 33.264C24.8094 33.0873 23.1924 33.0873 21.5899 33.264C21.0035 33.3295 20.4563 33.5911 20.0371 34.0063C19.6178 34.4216 19.351 34.9662 19.2799 35.552C19.089 37.1784 19.089 38.8216 19.2799 40.448C19.4199 41.66 20.3919 42.602 21.5879 42.736C23.1779 42.916 24.8219 42.916 26.4119 42.736C26.998 42.67 27.5447 42.4083 27.9635 41.9931C28.3824 41.5778 28.6489 41.0335 28.7199 40.448C28.9108 38.8216 28.9108 37.1784 28.7199 35.552C28.6489 34.9665 28.3824 34.4221 27.9635 34.0069C27.5447 33.5917 26.998 33.3299 26.4119 33.264ZM40.4119 33.264C38.8094 33.0873 37.1924 33.0873 35.5899 33.264C35.0035 33.3295 34.4563 33.5911 34.0371 34.0063C33.6178 34.4216 33.351 34.9662 33.2799 35.552C33.089 37.1784 33.089 38.8216 33.2799 40.448C33.4199 41.66 34.3919 42.602 35.5879 42.736C37.1779 42.916 38.8219 42.916 40.4119 42.736C40.998 42.67 41.5447 42.4083 41.9635 41.9931C42.3824 41.5778 42.6489 41.0335 42.7199 40.448C42.9108 38.8216 42.9108 37.1784 42.7199 35.552C42.6489 34.9665 42.3824 34.4221 41.9635 34.0069C41.5447 33.5917 40.998 33.3299 40.4119 33.264Z" fill="#757575"/>
</g>
</svg>
