<svg width="48" height="52" viewBox="0 0 48 52" fill="none" xmlns="http://www.w3.org/2000/svg">
<path id="Vector" fill-rule="evenodd" clip-rule="evenodd" d="M28.0724 6.03891C26.8853 4.89952 25.3036 4.26329 23.6581 4.26329C22.0126 4.26329 20.4309 4.89952 19.2438 6.03891L6.13676 18.6189C5.81578 18.9273 5.59972 19.3287 5.5191 19.7664C3.947 28.3272 3.83109 37.092 5.17626 45.6914L5.4936 47.7342H13.9284V30.1364C13.9284 29.5728 14.1523 29.0323 14.5508 28.6338C14.9493 28.2353 15.4898 28.0114 16.0534 28.0114H31.2628C31.8264 28.0114 32.3669 28.2353 32.7654 28.6338C33.1639 29.0323 33.3878 29.5728 33.3878 30.1364V47.7342H41.8226L42.1399 45.6942C43.4864 37.0941 43.3714 28.3283 41.7999 19.7664C41.7185 19.3283 41.5015 18.9269 41.1794 18.6189L28.0724 6.03891ZM16.3028 2.97324C18.2812 1.07538 20.9166 0.015686 23.6581 0.015686C26.3996 0.015686 29.035 1.07538 31.0134 2.97324L44.1233 15.5532C45.0866 16.4769 45.7383 17.6839 45.9791 18.9986C47.6317 28.0306 47.7533 37.2763 46.3389 46.3487L45.8289 49.6269C45.7285 50.2846 45.3952 50.8844 44.8897 51.317C44.3843 51.7497 43.7403 51.9864 43.0749 51.9842H31.2628C30.6992 51.9842 30.1587 51.7604 29.7602 51.3618C29.3617 50.9633 29.1378 50.4228 29.1378 49.8592V32.2614H18.1784V49.8592C18.1784 50.4228 17.9545 50.9633 17.556 51.3618C17.1575 51.7604 16.617 51.9842 16.0534 51.9842H4.24126C3.57593 51.9864 2.93194 51.7497 2.42649 51.317C1.92103 50.8844 1.58774 50.2846 1.48726 49.6269L0.977262 46.3487C-0.437099 37.2763 -0.315457 28.0306 1.3371 18.9986C1.57793 17.6839 2.2296 16.4769 3.19293 15.5504L16.3028 2.97324Z" fill="#353535"/>
</svg>
