<svg width="48" height="48" viewBox="0 0 48 48" fill="none" xmlns="http://www.w3.org/2000/svg">
<g id="basil:arrow-right-outline">
<path id="Vector" d="M26.94 17.0601C26.675 16.7757 26.5308 16.3996 26.5376 16.011C26.5445 15.6224 26.7019 15.2516 26.9768 14.9768C27.2516 14.702 27.6224 14.5446 28.011 14.5377C28.3996 14.5309 28.7757 14.6751 29.06 14.9401L37.06 22.9401C37.3409 23.2213 37.4987 23.6026 37.4987 24.0001C37.4987 24.3976 37.3409 24.7788 37.06 25.0601L29.06 33.0601C28.9227 33.2074 28.7571 33.3256 28.5731 33.4076C28.3891 33.4896 28.1905 33.5337 27.989 33.5372C27.7876 33.5408 27.5876 33.5037 27.4008 33.4283C27.214 33.3529 27.0444 33.2406 26.9019 33.0981C26.7595 32.9557 26.6472 32.786 26.5718 32.5993C26.4963 32.4125 26.4593 32.2124 26.4628 32.011C26.4664 31.8096 26.5105 31.611 26.5924 31.427C26.6744 31.243 26.7926 31.0774 26.94 30.9401L32.38 25.5001H13C12.6022 25.5001 12.2206 25.342 11.9393 25.0607C11.658 24.7794 11.5 24.3979 11.5 24.0001C11.5 23.6022 11.658 23.2207 11.9393 22.9394C12.2206 22.6581 12.6022 22.5001 13 22.5001H32.38L26.94 17.0601Z" fill="#757575"/>
</g>
</svg>
