<svg width="43" height="54" viewBox="0 0 43 54" fill="none" xmlns="http://www.w3.org/2000/svg">
<path fill-rule="evenodd" clip-rule="evenodd" d="M8.70571 1.16852C17.0805 -0.0361527 25.5845 -0.0361527 33.9592 1.16852C35.9768 1.4573 37.8379 2.41827 39.2416 3.896C40.6453 5.37372 41.5094 7.28177 41.6942 9.31152L42.0512 13.2668C42.8814 22.4043 42.8814 31.5985 42.0512 40.7332L41.6914 44.6885C41.5048 46.7171 40.6404 48.6238 39.2377 50.1011C37.8349 51.5784 35.9755 52.5402 33.9592 52.8315C25.5845 54.0362 17.0805 54.0362 8.70571 52.8315C6.68997 52.5396 4.83121 51.5776 3.42901 50.1003C2.02681 48.6231 1.16285 46.7167 0.976379 44.6885L0.616546 40.7332C-0.21463 31.5966 -0.21463 22.4034 0.616546 13.2668L0.976379 9.31152C1.16285 7.28331 2.02681 5.37696 3.42901 3.89971C4.83121 2.42247 6.68997 1.46039 8.70571 1.16852ZM33.3557 5.37318C25.3822 4.22621 17.2856 4.22621 9.31205 5.37318C8.24218 5.52887 7.2558 6.03996 6.51163 6.82422C5.76745 7.60848 5.30877 8.62029 5.20938 9.69685L4.84955 13.6522C4.04171 22.5324 4.04171 31.4676 4.84955 40.3479L5.20938 44.3032C5.40771 46.5217 7.10771 48.3095 9.31205 48.6268C17.2858 49.7699 25.3819 49.7699 33.3557 48.6268C34.4264 48.4731 35.4139 47.9626 36.1584 47.1779C36.9029 46.3933 37.361 45.3804 37.4584 44.3032L37.8182 40.3479C38.6261 31.4676 38.6261 22.5324 37.8182 13.6522L37.4584 9.69685C37.359 8.62029 36.9003 7.60848 36.1561 6.82422C35.412 6.03996 34.4256 5.52887 33.3557 5.37318Z" fill="#CC0000"/>
<path d="M15.9505 18.3013C15.9505 16.8101 16.5535 15.38 17.6268 14.3256C18.7001 13.2711 20.1559 12.6788 21.6738 12.6788C23.1918 12.6788 24.6476 13.2711 25.7209 14.3256C26.7942 15.38 27.3972 16.8101 27.3972 18.3013C27.3972 19.7924 26.7942 21.2226 25.7209 22.277C24.6476 23.3314 23.1918 23.9238 21.6738 23.9238C20.1559 23.9238 18.7001 23.3314 17.6268 22.277C16.5535 21.2226 15.9505 19.7924 15.9505 18.3013ZM18.8122 28.1406C16.5352 28.1406 14.3516 29.0292 12.7416 30.6108C11.1316 32.1925 10.2271 34.3376 10.2271 36.5744C10.2271 37.32 10.5286 38.035 11.0652 38.5623C11.6019 39.0895 12.3298 39.3856 13.0888 39.3856H30.2589C31.0179 39.3856 31.7458 39.0895 32.2825 38.5623C32.8191 38.035 33.1206 37.32 33.1206 36.5744C33.1206 34.3376 32.2161 32.1925 30.6061 30.6108C28.9961 29.0292 26.8124 28.1406 24.5355 28.1406H18.8122Z" fill="#CC0000"/>
</svg>
