<svg width="48" height="48" viewBox="0 0 48 48" fill="red" xmlns="http://www.w3.org/2000/svg">
<g id="cib:whatsapp" clip-path="url(#clip0_32_29)">
<path id="Vector" d="M34.992 28.7655C34.3905 28.461 31.461 27.0315 30.9135 26.8275C30.366 26.6325 29.9685 26.5305 29.5695 27.132C29.1795 27.7185 28.0305 29.061 27.6795 29.4525C27.3285 29.844 26.9835 29.874 26.391 29.6085C25.7895 29.304 23.868 28.6785 21.5865 26.6325C19.8045 25.047 18.618 23.094 18.2655 22.4925C17.9145 21.8985 18.2265 21.5625 18.5235 21.2655C18.7965 20.9925 19.125 20.5785 19.4295 20.2185C19.719 19.8585 19.812 19.617 20.0235 19.227C20.2185 18.8055 20.118 18.477 19.9695 18.18C19.821 17.883 18.6255 14.9385 18.126 13.7655C17.649 12.6015 17.1495 12.75 16.782 12.75C16.4385 12.7185 16.0395 12.7185 15.642 12.7185C15.2445 12.7185 14.595 12.867 14.0475 13.437C13.5 14.0385 11.9535 15.4755 11.9535 18.3825C11.9535 21.297 14.094 24.117 14.391 24.5385C14.6955 24.9285 18.6015 30.9285 24.594 33.507C26.0235 34.1085 27.1335 34.4685 28.0005 34.7655C29.43 35.2185 30.735 35.1555 31.7655 35.007C32.9055 34.8195 35.2965 33.561 35.7975 32.1555C36.306 30.741 36.306 29.5695 36.1575 29.304C36.009 29.031 35.619 28.8825 35.0175 28.617L34.992 28.7655ZM24.1245 43.5H24.093C20.5455 43.5 17.0385 42.5385 13.9755 40.7415L13.257 40.3125L5.757 42.2655L7.773 34.968L7.2885 34.218C5.308 31.0684 4.25717 27.4235 4.257 23.703C4.257 12.813 13.1715 3.93 24.1395 3.93C29.4525 3.93 34.437 6 38.187 9.75C40.0368 11.578 41.5041 13.756 42.5033 16.157C43.5025 18.558 44.0137 21.1339 44.007 23.7345C43.992 34.617 35.085 43.5 24.132 43.5H24.1245ZM41.0385 6.8985C36.4755 2.4915 30.4755 0 24.093 0C10.929 0 0.21 10.6725 0.2025 23.7885C0.2025 27.9765 1.296 32.0625 3.39 35.679L0 48L12.672 44.6955C16.1818 46.5899 20.1061 47.5855 24.0945 47.5935H24.102C37.2735 47.5935 47.9925 36.921 48 23.796C48 17.445 45.5235 11.4675 41.0085 6.975L41.0385 6.8985Z" fill="inherit"/>
</g>
<defs>
<clipPath id="clip0_32_29">
<rect width="48" height="48" fill="white"/>
</clipPath>
</defs>
</svg>
