<svg width="48" height="48" viewBox="0 0 48 48" fill="red" xmlns="http://www.w3.org/2000/svg">
<g id="cib:discord">
<path id="Vector" d="M40.4462 0C43.2587 0 45.5237 2.274 45.6572 4.953V48L40.3052 43.4535L37.3682 40.782L34.1567 37.9845L35.4932 42.3915H7.42223C4.61723 42.3915 2.34473 40.266 2.34473 37.4385V4.962C2.34473 2.283 4.61873 0.009 7.43123 0.009H40.4312L40.4462 0ZM28.2107 11.367H28.1477L27.7412 11.766C31.8902 12.969 33.8972 14.844 33.8972 14.844C31.2257 13.5075 28.8107 12.8355 26.4047 12.5625C24.6707 12.297 22.9277 12.438 21.4592 12.5625H21.0527C20.1152 12.5625 18.1157 12.969 15.4352 14.0385C14.5052 14.445 13.9667 14.7105 13.9667 14.7105C13.9667 14.7105 15.9662 12.702 20.3882 11.6325L20.1152 11.367C20.1152 11.367 16.7717 11.2335 13.1627 13.9065C13.1627 13.9065 9.55373 20.196 9.55373 27.945C9.55373 27.945 11.5532 31.422 17.0387 31.554C17.0387 31.554 17.8427 30.492 18.6482 29.5545C15.5702 28.617 14.3672 26.742 14.3672 26.742C14.3672 26.742 14.6402 26.8755 15.0392 27.141H15.1562C15.2192 27.141 15.2507 27.1725 15.2807 27.204V27.219C15.3122 27.2505 15.3437 27.273 15.3977 27.273C16.0622 27.546 16.7177 27.8115 17.2577 28.077C18.1952 28.476 19.3907 28.881 20.8592 29.148C22.7192 29.421 24.8507 29.547 27.2807 29.148C28.4762 28.875 29.6792 28.617 30.8822 28.077C31.6562 27.678 32.6162 27.2805 33.6707 26.601C33.6707 26.601 32.4752 28.476 29.2637 29.4135C29.9207 30.3435 30.8492 31.413 30.8492 31.413C36.3407 31.2885 38.4737 27.8115 38.5907 27.96C38.5907 20.2185 34.9577 13.9215 34.9577 13.9215C31.6922 11.4915 28.6292 11.3985 28.0907 11.3985L28.2002 11.3595L28.2107 11.367ZM28.5467 20.196C29.9537 20.196 31.0862 21.3915 31.0862 22.86C31.0862 24.345 29.9462 25.539 28.5467 25.539C27.1397 25.539 26.0072 24.3435 26.0072 22.875C26.0072 21.39 27.1472 20.196 28.5467 20.196ZM19.4612 20.196C20.8592 20.196 21.9932 21.3915 21.9932 22.86C21.9932 24.345 20.8532 25.539 19.4537 25.539C18.0467 25.539 16.9067 24.3435 16.9067 22.875C16.9067 21.39 18.0467 20.196 19.4537 20.196H19.4612Z" fill="inherit"/>
</g>
</svg>
