<svg width="48" height="48" viewBox="0 0 48 48" fill="red" xmlns="http://www.w3.org/2000/svg">
<g id="cib:dribbble" clip-path="url(#clip0_32_21)">
<path id="Vector" d="M24 48C10.7745 48 0 37.2255 0 24C0 10.7745 10.7745 0 24 0C37.2255 0 48 10.7745 48 24C48 37.2255 37.2255 48 24 48ZM44.2425 27.282C43.5405 27.0615 37.899 25.3755 31.4685 26.406C34.149 33.774 35.2425 39.774 35.454 41.0235C37.7793 39.4542 39.7586 37.4254 41.27 35.0621C42.7815 32.6988 43.7931 30.0511 44.2425 27.282ZM32.0085 42.8985C31.704 41.103 30.5085 34.836 27.633 27.36L27.501 27.3975C15.9225 31.4295 11.7825 39.453 11.4225 40.203C15.011 43.0153 19.4408 44.5395 24 44.5305C26.8365 44.5305 29.5395 43.953 31.9995 42.9045L32.0085 42.8985ZM8.7735 37.7415C9.234 36.9375 14.859 27.6315 25.437 24.21C25.7025 24.1185 25.9755 24.0405 26.241 23.9685C25.7204 22.7941 25.1657 21.6351 24.5775 20.493C14.343 23.547 4.413 23.4225 3.516 23.3985L3.5085 24.024C3.5085 29.2905 5.5005 34.1025 8.775 37.734L8.7735 37.7415ZM3.93 19.8285C4.8525 19.845 13.296 19.8825 22.8825 17.337C20.5619 13.251 18.0248 9.2919 15.282 5.4765C12.412 6.83042 9.89389 8.82972 7.92461 11.3181C5.95532 13.8065 4.58817 16.7166 3.93 19.821V19.8285ZM19.2045 4.1025C19.767 4.869 23.493 9.93 26.844 16.1025C34.1325 13.377 37.2255 9.2265 37.5945 8.7045C33.8546 5.36504 29.0138 3.52337 24 3.5325C22.3844 3.52908 20.7743 3.72046 19.2045 4.1025ZM39.8685 11.07C39.438 11.6475 36 16.0545 28.422 19.1475C28.8975 20.1315 29.3595 21.117 29.7825 22.1235C29.946 22.4835 30.078 22.8435 30.219 23.1795C37.041 22.32 43.821 23.703 44.5005 23.844C44.471 19.1847 42.8403 14.6772 39.882 11.0775L39.8685 11.07Z" fill="inherit"/>
</g>
<defs>
<clipPath id="clip0_32_21">
<rect width="48" height="48" fill="white"/>
</clipPath>
</defs>
</svg>
