<svg width="48" height="48" viewBox="0 0 48 48" fill="red" xmlns="http://www.w3.org/2000/svg">
<g id="cib:youtube">
<path id="Vector" d="M46.9918 12.4065C46.7138 11.4097 46.1828 10.5018 45.4503 9.77083C44.7178 9.03989 43.8087 8.51083 42.8113 8.23504C39.0688 7.23454 24.0238 7.23455 24.0238 7.23455C24.0238 7.23455 9.00726 7.21054 5.22576 8.23504C4.23003 8.51218 3.32277 9.04184 2.59192 9.7727C1.86106 10.5036 1.3314 11.4108 1.05426 12.4065C0.34379 16.2379 -0.00623888 20.1274 0.00876324 24.024C0.000670354 27.902 0.350656 31.7724 1.05426 35.586C1.3327 36.5821 1.86265 37.4898 2.59319 38.2219C3.32373 38.9541 4.2303 39.486 5.22576 39.7665C8.96826 40.767 24.0238 40.767 24.0238 40.767C24.0238 40.767 39.0313 40.767 42.8113 39.7665C43.8084 39.4873 44.7168 38.956 45.449 38.2238C46.1812 37.4916 46.7125 36.5832 46.9918 35.586C47.6803 31.7745 48.0163 27.8985 47.9923 24.024C48.0163 20.124 47.6878 16.242 46.9918 12.4065ZM19.2178 31.2045V16.812L31.7413 24.024L19.2178 31.2045Z" fill="inherit"/>
</g>
</svg>
