<svg width="48" height="48" viewBox="0 0 48 48" fill="red" xmlns="http://www.w3.org/2000/svg">
<g id="cib:reddit" clip-path="url(#clip0_32_27)">
<path id="Vector" d="M18.891 28.641C18.2759 28.6434 17.685 28.402 17.2475 27.9696C16.81 27.5372 16.5618 26.9491 16.557 26.334C16.557 25.041 17.598 24 18.891 24C20.166 24 21.198 25.041 21.198 26.334C21.198 27.609 20.157 28.641 18.891 28.641ZM47.25 24C47.25 36.8445 36.843 47.25 24 47.25C11.157 47.25 0.75 36.843 0.75 24C0.75 11.157 11.157 0.75 24 0.75C36.843 0.75 47.25 11.157 47.25 24ZM34.8465 20.1375C33.966 20.1375 33.1875 20.5035 32.6145 21.075C30.5145 19.6215 27.684 18.684 24.543 18.5805L26.1735 11.2395L31.368 12.411C31.368 13.686 32.409 14.718 33.6735 14.718C34.968 14.718 36.0075 13.659 36.0075 12.384C36.0075 11.109 34.9665 10.05 33.6735 10.05C32.7645 10.05 31.986 10.5945 31.602 11.3445L25.8645 10.0695C25.5825 9.9945 25.293 10.2015 25.218 10.482L23.427 18.582C20.3145 18.714 17.511 19.641 15.411 21.0945C15.1191 20.7902 14.7682 20.5485 14.3798 20.3842C13.9915 20.22 13.5737 20.1365 13.152 20.139C9.8805 20.139 8.811 24.5355 11.802 26.0265C11.6965 26.5038 11.6432 26.9912 11.643 27.48C11.643 32.4105 17.193 36.405 24.018 36.405C30.8715 36.405 36.4215 32.4105 36.4215 27.48C36.4215 26.9835 36.3645 26.4675 36.243 25.998C39.177 24.498 38.0985 20.1375 34.8465 20.1375ZM28.3875 31.032C26.682 32.7375 21.2535 32.7105 19.6125 31.032C19.5069 30.9333 19.3678 30.8784 19.2233 30.8784C19.0787 30.8784 18.9396 30.9333 18.834 31.032C18.6 31.266 18.6 31.632 18.834 31.839C20.9715 33.9765 27.018 33.9765 29.166 31.839C29.4 31.632 29.4 31.2675 29.166 31.032C29.0604 30.9333 28.9213 30.8784 28.7767 30.8784C28.6322 30.8784 28.4931 30.9333 28.3875 31.032ZM29.109 24C27.834 24 26.802 25.041 26.802 26.334C26.8044 26.7934 26.943 27.2417 27.2002 27.6223C27.4575 28.0029 27.8218 28.2986 28.2472 28.4721C28.6726 28.6455 29.1398 28.6889 29.5899 28.5967C30.0399 28.5046 30.4525 28.281 30.7754 27.9543C31.0983 27.6276 31.3171 27.2124 31.404 26.7613C31.4909 26.3103 31.4421 25.8435 31.2637 25.4202C31.0853 24.9969 30.7854 24.636 30.4018 24.3832C30.0183 24.1304 29.5684 23.997 29.109 24Z" fill="inherit"/>
</g>
<defs>
<clipPath id="clip0_32_27">
<rect width="48" height="48" fill="white"/>
</clipPath>
</defs>
</svg>
