<svg width="48" height="48" viewBox="0 0 48 48" fill="red" xmlns="http://www.w3.org/2000/svg">
<g id="cib:facebook" clip-path="url(#clip0_32_11)">
<path id="Vector" d="M48 24C48 10.7415 37.2495 0 24 0C10.7415 0 0 10.7415 0 24C0 35.976 8.7735 45.906 20.25 47.7045V30.939H14.1555V24.0015H20.25V18.711C20.25 12.6975 23.8275 9.3765 29.3115 9.3765C31.938 9.3765 34.6875 9.8445 34.6875 9.8445V15.75H31.656C28.68 15.75 27.75 17.6025 27.75 19.5V24H34.4055L33.336 30.9375H27.75V47.703C39.2175 45.9045 48 35.9745 48 23.9985V24Z" fill="inherit"/>
</g>
<defs>
<clipPath id="clip0_32_11">
<rect width="48" height="48" fill="white"/>
</clipPath>
</defs>
</svg>
