<svg width="48" height="48" viewBox="0 0 48 48" fill="red" xmlns="http://www.w3.org/2000/svg">
<g id="cib:instagram" clip-path="url(#clip0_32_15)">
<path id="Vector" d="M23.9999 0C17.4764 0 16.6634 0.0315 14.1104 0.1395C11.5469 0.2655 9.81293 0.663 8.28293 1.257C6.68169 1.86166 5.23152 2.80814 4.03343 4.0305C2.80918 5.22704 1.86242 6.67766 1.25993 8.28C0.66593 9.81 0.26843 11.544 0.14243 14.1075C0.0269297 16.662 0.00292969 17.4735 0.00292969 23.997C0.00292969 30.5205 0.0344297 31.3335 0.14243 33.8865C0.26843 36.4425 0.66593 38.184 1.25993 39.714C1.86459 41.3152 2.81107 42.7654 4.03343 43.9635C5.22997 45.1877 6.68059 46.1345 8.28293 46.737C9.81293 47.3235 11.5544 47.7285 14.1104 47.8545C16.6649 47.97 17.4764 47.994 23.9999 47.994C30.5234 47.994 31.3364 47.9625 33.8894 47.8545C36.4454 47.7285 38.1869 47.322 39.7169 46.737C41.3182 46.1323 42.7683 45.1859 43.9664 43.9635C45.1945 42.7701 46.1419 41.3186 46.7399 39.714C47.3264 38.184 47.7314 36.4425 47.8574 33.8865C47.9729 31.332 47.9969 30.5205 47.9969 23.997C47.9969 17.4735 47.9654 16.6605 47.8574 14.1075C47.7314 11.5515 47.3249 9.801 46.7399 8.28C46.1353 6.67876 45.1888 5.22859 43.9664 4.0305C42.773 2.80241 41.3215 1.85505 39.7169 1.257C38.1869 0.663 36.4454 0.2655 33.8894 0.1395C31.3349 0.024 30.5234 0 23.9999 0ZM23.9999 4.32C30.4064 4.32 31.1714 4.3515 33.7034 4.4595C36.0389 4.569 37.3109 4.959 38.1554 5.289C39.1992 5.67488 40.1441 6.28821 40.9214 7.0845C41.718 7.85722 42.3293 8.8003 42.7094 9.843C43.0394 10.6875 43.4294 11.9595 43.5389 14.295C43.6469 16.827 43.6784 17.5935 43.6784 23.9985C43.6784 30.4035 43.6469 31.17 43.5299 33.702C43.4039 36.0375 43.0139 37.3095 42.6854 38.154C42.2309 39.2805 41.7239 40.068 40.8869 40.92C40.1072 41.7117 39.1629 42.3221 38.1209 42.708C37.2869 43.038 35.9969 43.428 33.6524 43.5375C31.1069 43.6455 30.3569 43.677 23.9339 43.677C17.5109 43.677 16.7624 43.6455 14.2139 43.5285C11.8784 43.4025 10.5899 43.0125 9.74543 42.684C8.60543 42.2295 7.82393 41.7225 6.98693 40.8855C6.14243 40.041 5.60543 39.237 5.19143 38.1195C4.85543 37.2855 4.47143 35.9955 4.34693 33.651C4.26143 31.1355 4.22093 30.3555 4.22093 23.9625C4.22093 17.5725 4.26143 16.791 4.34693 14.244C4.47143 11.8995 4.85543 10.6125 5.19143 9.7755C5.60543 8.634 6.14393 7.854 6.98693 7.0095C7.82243 6.174 8.60543 5.634 9.74543 5.211C10.5899 4.8825 11.8469 4.4925 14.1914 4.3755C16.7369 4.284 17.4869 4.251 23.9009 4.251L23.9999 4.32ZM23.9999 11.6805C22.3819 11.6799 20.7797 11.9982 19.2848 12.6171C17.7898 13.236 16.4315 14.1434 15.2874 15.2875C14.1433 16.4316 13.2359 17.7899 12.617 19.2848C11.9981 20.7798 11.6798 22.382 11.6804 24C11.6798 25.618 11.9981 27.2202 12.617 28.7152C13.2359 30.2101 14.1433 31.5684 15.2874 32.7125C16.4315 33.8566 17.7898 34.764 19.2848 35.3829C20.7797 36.0018 22.3819 36.3201 23.9999 36.3195C25.6179 36.3201 27.2202 36.0018 28.7151 35.3829C30.21 34.764 31.5684 33.8566 32.7124 32.7125C33.8565 31.5684 34.764 30.2101 35.3829 28.7152C36.0018 27.2202 36.32 25.618 36.3194 24C36.32 22.382 36.0018 20.7798 35.3829 19.2848C34.764 17.7899 33.8565 16.4316 32.7124 15.2875C31.5684 14.1434 30.21 13.236 28.7151 12.6171C27.2202 11.9982 25.6179 11.6799 23.9999 11.6805ZM23.9999 31.9995C19.5779 31.9995 16.0004 28.422 16.0004 24C16.0004 19.578 19.5779 16.0005 23.9999 16.0005C28.4219 16.0005 31.9994 19.578 31.9994 24C31.9994 28.422 28.4219 31.9995 23.9999 31.9995ZM39.6959 11.1885C39.6951 11.953 39.3909 12.6859 38.85 13.2262C38.3092 13.7665 37.5759 14.07 36.8114 14.07C36.4334 14.07 36.0591 13.9955 35.7099 13.8509C35.3606 13.7062 35.0433 13.4942 34.776 13.2269C34.5087 12.9596 34.2967 12.6423 34.152 12.2931C34.0074 11.9438 33.9329 11.5695 33.9329 11.1915C33.9329 10.8135 34.0074 10.4392 34.152 10.0899C34.2967 9.74071 34.5087 9.42339 34.776 9.15609C35.0433 8.8888 35.3606 8.67677 35.7099 8.53211C36.0591 8.38745 36.4334 8.313 36.8114 8.313C38.3969 8.313 39.6959 9.603 39.6959 11.1885Z" fill="inherit"/>
</g>
<defs>
<clipPath id="clip0_32_15">
<rect width="48" height="48" fill="white"/>
</clipPath>
</defs>
</svg>
