<svg width="48" height="48" viewBox="0 0 48 48" fill="red" xmlns="http://www.w3.org/2000/svg">
<g id="cib:tiktok">
<path id="Vector" d="M25.0619 0.0405C27.6794 0 30.2819 0.024 32.8814 0C33.0389 3.0615 34.1399 6.18 36.3809 8.3445C38.6174 10.563 41.7809 11.5785 44.8589 11.922V19.9755C41.9744 19.881 39.0764 19.281 36.4589 18.039C35.3189 17.523 34.2569 16.8585 33.2174 16.179C33.2039 22.023 33.2414 27.8595 33.1799 33.6795C33.0239 36.4755 32.1014 39.258 30.4754 41.562C27.8594 45.3975 23.3189 47.898 18.6554 47.976C15.7949 48.1395 12.9374 47.3595 10.4999 45.9225C6.46037 43.5405 3.61787 39.18 3.20387 34.5C3.15112 33.5089 3.14311 32.5159 3.17987 31.524C3.53987 27.7185 5.42237 24.078 8.34437 21.6015C11.6564 18.717 16.2959 17.343 20.6399 18.156C20.6804 21.1185 20.5619 24.078 20.5619 27.0405C18.5774 26.3985 16.2584 26.5785 14.5244 27.783C13.2559 28.6189 12.2972 29.8485 11.7959 31.2825C11.3819 32.2965 11.5004 33.423 11.5244 34.5C11.9999 37.782 15.1559 40.5405 18.5249 40.242C20.7584 40.218 22.8989 38.922 24.0629 37.0245C24.4394 36.36 24.8609 35.6805 24.8834 34.899C25.0799 31.3215 25.0019 27.759 25.0259 24.1815C25.0424 16.119 25.0019 8.079 25.0634 0.042L25.0619 0.0405Z" fill="inherit"/>
</g>
</svg>
